# xmcd
#
# Track frame offsets: 
#        150
#        8308
#        10685
#        32876
#        52324
#        64688
#        73545
#        95331
#        122618
#        133490
#        148344
#        173881
#        188365
#        199519
#        210500
#        222129
#        233634
#        244750
#        257178
#        269284
#        282322
#        298216
#        313452
#        330943
#        345246
#
# Disc length: 4711 seconds
#
# Revision: 0
# Processed by: cddbd v1.5.2PL0 Copyright (c) Steve Scherf et al.
# Submitted via: ExactAudioCopy v0.99pb5
#
DISCID=77126519
DTITLE=Various Artist - Random Songs - Disc 2
DYEAR=1900
DGENRE=Polka
TTITLE0=D'Oyly Carte Opera Company And Orchestra - The Gondoliers: Dan
TTITLE0=ce A Cachucha, Fandango, Bolero
TTITLE1=David and The High Spirit - Polka: Beer Barrel Polka
TTITLE2=Donovan - Season of the Witch
TTITLE3=The Dream Academy - Life In a Northern Town
TTITLE4=Ed Ames - My Cup Runneth Over
TTITLE5=Elvis Presley - All Shook Up
TTITLE6=Eurythmics - Here Comes the Rain Again
TTITLE7=Filter - Take a Picture
TTITLE8=The Fleetwoods - Come Softly to Me
TTITLE9=Fred Astaire - Cheek to Cheek
TTITLE10=Fred Astaire - Cheek to Cheek
TTITLE11=Fred Astaire - The Way You Look Tonight
TTITLE12=Gerry and The Pacemakers - You'll Never Walk Alone
TTITLE13=Gerry and The Pacemakers - Ferry Cross the Mersey
TTITLE14=Gerry and The Pacemakers - Don't Let the Sun Catch You Cryin'
TTITLE15=Ginger Rogers - We're In the Money (The Gold Diggers Song) [F
TTITLE15=rom "Gold Diggers of 1933"]
TTITLE16=Henri Pélissier - La Complainte de la Butte
TTITLE17=Hugo Montenegro and His Orchestra - The Good, The Bad and The U
TTITLE17=gly
TTITLE18=Hugo Montenegro and His Orchestra - Theme from "A Fistful of 
TTITLE18=Dollars"
TTITLE19=The Instrumental Orchestra - Heartbreak Hotel
TTITLE20=Israel Kamakawiwo'ole - Somewhere Over the Rainbow
TTITLE21=Ivo Wittich, Jaroslav Skrobak, Karel Vejvoda, Vladimir Burda 
TTITLE21=& Vladimir Zizka - Fascination
TTITLE22=Ivo Wittich, Jaroslav Skrobak, Karel Vejvoda, Vladimir Burda 
TTITLE22=& Vladimir Zizka - Somewhere, My Love
TTITLE23=Jack Hylton - Happy Days Are Here Again
TTITLE24=Leonard Slatkin and St. Louis Symphony Orchestra - The Typewrit
TTITLE24=er
EXTD=
EXTT0=
EXTT1=
EXTT2=
EXTT3=
EXTT4=
EXTT5=
EXTT6=
EXTT7=
EXTT8=
EXTT9=
EXTT10=
EXTT11=
EXTT12=
EXTT13=
EXTT14=
EXTT15=
EXTT16=
EXTT17=
EXTT18=
EXTT19=
EXTT20=
EXTT21=
EXTT22=
EXTT23=
EXTT24=
PLAYORDER=
